<?xml version="1.0" encoding="utf-8"?>
<!-- Generator: Adobe Illustrator 21.0.2, SVG Export Plug-In . SVG Version: 6.00 Build 0)  -->
<svg version="1.1" id="Layer_1" xmlns="http://www.w3.org/2000/svg" xmlns:xlink="http://www.w3.org/1999/xlink" x="0px" y="0px"
	 viewBox="0 0 120.3 116.8" style="enable-background:new 0 0 120.3 116.8;" xml:space="preserve">
<style type="text/css">
	.st0{fill:#164C9C;}
	.st1{fill:#FFFFFF;}
	.st2{fill:#F05A28;}
</style>
<circle class="st0" cx="60" cy="58.3" r="54.5"/>
<path class="st1" d="M67,39.8C67,39.8,67,39.8,67,39.8L67,88c0,2-0.3,3.7-0.9,5c-0.6,1.3-1.5,2.3-2.5,3.1c-1,0.8-2.2,1.3-3.5,1.6
	c-1.3,0.3-2.6,0.5-3.9,0.5h-1.3c-0.1,0-0.2-0.1-0.2-0.2V40.1H43.9c-1.3,0-2.5-0.1-3.4-0.4c-0.6-0.1-1.1-0.3-1.5-0.5
	c-1.3-0.6-2.3-1.5-3.1-2.5c-0.8-1-1.3-2.2-1.6-3.5c-0.3-1.3-0.5-2.6-0.5-3.9v-1.3c0-0.1,0.1-0.2,0.2-0.2H55c1.9,0,3.7,0.4,5.3,1.2
	C64.5,31,67,35.1,67,39.8C67,39.7,67,39.8,67,39.8z"/>
<path class="st2" d="M88,28.1v1.1c0,1.3-0.2,2.6-0.5,3.9c-0.3,1.3-0.9,2.5-1.6,3.5c-0.8,1-1.8,1.8-3.1,2.5c-0.5,0.2-1,0.4-1.5,0.5
	c-1,0.3-2.1,0.4-3.4,0.4h-1c-0.1,0-0.2-0.1-0.2-0.2c0.2-0.9,0.3-1.8,0.3-2.7c0-3.6-1.5-6.8-4-9.1c-0.1-0.1-0.1-0.3,0.1-0.3h14.5
	C87.8,27.7,88,27.9,88,28.1z"/>
</svg>
