<?xml version="1.0" encoding="utf-8"?>
<!-- Generator: Adobe Illustrator 25.2.3, SVG Export Plug-In . SVG Version: 6.00 Build 0)  -->
<svg version="1.1" id="Layer_1" xmlns="http://www.w3.org/2000/svg" xmlns:xlink="http://www.w3.org/1999/xlink" x="0px" y="0px"
	 viewBox="0 0 357.2 116.8" style="enable-background:new 0 0 357.2 116.8;" xml:space="preserve">
<style type="text/css">
	.st0{fill:#164C9C;}
	.st1{fill:#F05A28;}
	.st2{fill:#989899;}
</style>
<path class="st0" d="M67,39.8L67,39.8V88c0,2-0.3,3.7-0.9,5s-1.5,2.3-2.5,3.1c-1,0.8-2.2,1.3-3.5,1.6c-1.3,0.3-2.6,0.5-3.9,0.5h-1.3
	c-0.1,0-0.2-0.1-0.2-0.2V40.1H43.9c-1.3,0-2.5-0.1-3.4-0.4c-0.6-0.1-1.1-0.3-1.5-0.5c-1.3-0.6-2.3-1.5-3.1-2.5s-1.3-2.2-1.6-3.5
	s-0.5-2.6-0.5-3.9V28c0-0.1,0.1-0.2,0.2-0.2h21c1.9,0,3.7,0.4,5.3,1.2C64.5,31,67,35.1,67,39.8C67,39.7,67,39.8,67,39.8z"/>
<path class="st1" d="M88,28.1v1.1c0,1.3-0.2,2.6-0.5,3.9c-0.3,1.3-0.9,2.5-1.6,3.5c-0.8,1-1.8,1.8-3.1,2.5c-0.5,0.2-1,0.4-1.5,0.5
	c-1,0.3-2.1,0.4-3.4,0.4h-1c-0.1,0-0.2-0.1-0.2-0.2c0.2-0.9,0.3-1.8,0.3-2.7c0-3.6-1.5-6.8-4-9.1c-0.1-0.1-0.1-0.3,0.1-0.3h14.5
	C87.8,27.7,88,27.9,88,28.1z"/>
<rect x="146" y="27.8" class="st2" width="2" height="70.4"/>
<g>
	<path class="st2" d="M197.3,63.1c0.1,5.7,3.7,8.1,8,8.1c3,0,4.8-0.5,6.4-1.2l0.7,3c-1.5,0.7-4,1.4-7.7,1.4
		c-7.2,0-11.4-4.7-11.4-11.7s4.1-12.5,10.9-12.5c7.6,0,9.6,6.7,9.6,10.9c0,0.9-0.1,1.5-0.1,2H197.3z M209.6,60.1
		c0-2.7-1.1-6.9-5.9-6.9c-4.3,0-6.1,3.9-6.5,6.9H209.6z"/>
	<path class="st2" d="M218.4,69.7c1.2,0.8,3.5,1.7,5.6,1.7c3.1,0,4.5-1.5,4.5-3.5c0-2-1.2-3.1-4.3-4.3c-4.2-1.5-6.1-3.8-6.1-6.6
		c0-3.7,3-6.8,8-6.8c2.4,0,4.4,0.7,5.7,1.4l-1.1,3.1c-0.9-0.6-2.6-1.3-4.8-1.3c-2.5,0-3.9,1.4-3.9,3.2c0,1.9,1.4,2.8,4.4,3.9
		c4,1.5,6.1,3.6,6.1,7c0,4.1-3.2,7-8.7,7c-2.5,0-4.9-0.6-6.5-1.6L218.4,69.7z"/>
	<path class="st2" d="M238,39.9h4.2v14.5h0.1c0.7-1.2,1.7-2.3,3-3c1.2-0.7,2.7-1.2,4.3-1.2c3.1,0,8.1,1.9,8.1,9.9V74h-4.2V60.6
		c0-3.7-1.4-6.9-5.4-6.9c-2.7,0-4.9,1.9-5.7,4.2c-0.2,0.6-0.3,1.2-0.3,2v14H238V39.9z"/>
	<path class="st2" d="M285.6,62.2c0,8.6-6,12.3-11.6,12.3c-6.3,0-11.1-4.6-11.1-12c0-7.8,5.1-12.3,11.5-12.3
		C281.1,50.2,285.6,55.1,285.6,62.2z M267.2,62.4c0,5.1,2.9,8.9,7.1,8.9c4,0,7.1-3.8,7.1-9c0-3.9-2-8.9-7-8.9S267.2,58,267.2,62.4z"
		/>
	<path class="st2" d="M290.9,58.3c0-3-0.1-5.4-0.2-7.6h3.8l0.2,4h0.1c1.7-2.8,4.5-4.5,8.3-4.5c5.6,0,9.8,4.8,9.8,11.8
		c0,8.4-5.1,12.5-10.6,12.5c-3.1,0-5.8-1.3-7.2-3.6h-0.1v12.6h-4.2V58.3z M295.1,64.5c0,0.6,0.1,1.2,0.2,1.7
		c0.8,2.9,3.3,4.9,6.3,4.9c4.5,0,7.1-3.6,7.1-9c0-4.7-2.4-8.6-6.9-8.6c-2.9,0-5.6,2.1-6.4,5.2c-0.1,0.5-0.3,1.2-0.3,1.7V64.5z"/>
</g>
</svg>
